<?xml version="1.0" encoding="UTF-8" standalone="no"?>
<!-- Generator: Adobe Illustrator 16.0.0, SVG Export Plug-In . SVG Version: 6.00 Build 0)  -->

<svg
   xmlns:dc="http://purl.org/dc/elements/1.1/"
   xmlns:cc="http://creativecommons.org/ns#"
   xmlns:rdf="http://www.w3.org/1999/02/22-rdf-syntax-ns#"
   xmlns:svg="http://www.w3.org/2000/svg"
   xmlns="http://www.w3.org/2000/svg"
   xmlns:sodipodi="http://sodipodi.sourceforge.net/DTD/sodipodi-0.dtd"
   xmlns:inkscape="http://www.inkscape.org/namespaces/inkscape"
   version="1.1"
   id="Layer_1"
   x="0px"
   y="0px"
   width="356.11304"
   height="43.296371"
   viewBox="0 0 356.11304 43.296372"
   enable-background="new 0 0 613.667 327.667"
   xml:space="preserve"
   inkscape:version="0.48.5 r10040"
   sodipodi:docname="logo-white.svg"><metadata
     id="metadata3233"><rdf:RDF><cc:Work
         rdf:about=""><dc:format>image/svg+xml</dc:format><dc:type
           rdf:resource="http://purl.org/dc/dcmitype/StillImage" /><dc:title /></cc:Work></rdf:RDF></metadata><defs
     id="defs3231" /><sodipodi:namedview
     pagecolor="#ffffff"
     bordercolor="#666666"
     borderopacity="1"
     objecttolerance="10"
     gridtolerance="10"
     guidetolerance="10"
     inkscape:pageopacity="0"
     inkscape:pageshadow="2"
     inkscape:window-width="1920"
     inkscape:window-height="1028"
     id="namedview3229"
     showgrid="false"
     inkscape:zoom="1.435535"
     inkscape:cx="563.63524"
     inkscape:cy="69.145621"
     inkscape:window-x="-8"
     inkscape:window-y="-8"
     inkscape:window-maximized="1"
     inkscape:current-layer="Layer_1"
     showguides="true"
     inkscape:guide-bbox="true"
     fit-margin-top="0"
     fit-margin-left="0"
     fit-margin-right="0"
     fit-margin-bottom="0"><sodipodi:guide
       orientation="0,1"
       position="178.54044,106.00939"
       id="guide3795" /></sodipodi:namedview><g
     style="font-size:40px;font-style:normal;font-weight:normal;line-height:125%;letter-spacing:0px;word-spacing:0px;fill:#ffffff;fill-opacity:1;stroke:none;font-family:lato;-inkscape-font-specification:lato"
     id="text3028"><path
       d="m 215.06497,8.7681888 c -0.12002,0.200024 -0.24669,0.3533571 -0.38,0.46 -0.13335,0.093357 -0.30669,0.1400236 -0.52,0.14 -0.22669,2.36e-5 -0.49335,-0.1133097 -0.8,-0.34 -0.29335,-0.2266425 -0.67335,-0.473309 -1.14,-0.74 -0.45335,-0.2799751 -1.00668,-0.5333082 -1.66,-0.76 -0.64001,-0.226641 -1.42001,-0.3399743 -2.34,-0.34 -0.86668,2.57e-5 -1.63334,0.1200256 -2.3,0.36 -0.66668,0.2266918 -1.22668,0.5400248 -1.68,0.94 -0.44001,0.400024 -0.77334,0.8733569 -1,1.42 -0.22667,0.5333562 -0.34001,1.1133552 -0.34,1.7400002 -1e-5,0.80002 0.19333,1.466686 0.58,2 0.39999,0.520019 0.91999,0.966685 1.56,1.34 0.65332,0.373351 1.38666,0.700017 2.2,0.98 0.82665,0.266683 1.66665,0.546683 2.52,0.84 0.86665,0.293349 1.70665,0.626682 2.52,1 0.82665,0.360015 1.55998,0.820014 2.2,1.38 0.65331,0.560013 1.17331,1.246679 1.56,2.06 0.39998,0.813344 0.59998,1.813343 0.6,3 -2e-5,1.253341 -0.21335,2.433339 -0.64,3.54 -0.42669,1.093337 -1.05335,2.04667 -1.88,2.86 -0.81335,0.813335 -1.82002,1.453334 -3.02,1.92 -1.18668,0.466666 -2.54001,0.699999 -4.06,0.7 -1.85334,-10e-7 -3.54667,-0.333334 -5.08,-1 -1.52001,-0.679999 -2.82,-1.593331 -3.9,-2.74 l 1.12,-1.84 c 0.10666,-0.146661 0.23333,-0.266661 0.38,-0.36 0.16,-0.106661 0.33333,-0.159994 0.52,-0.16 0.27999,6e-6 0.59999,0.153339 0.96,0.46 0.35999,0.293338 0.80666,0.620004 1.34,0.98 0.54666,0.360004 1.19999,0.693337 1.96,1 0.77332,0.293336 1.71332,0.440003 2.82,0.44 0.91999,3e-6 1.73999,-0.126664 2.46,-0.38 0.71998,-0.25333 1.32665,-0.606663 1.82,-1.06 0.50665,-0.466662 0.89332,-1.019995 1.16,-1.66 0.26665,-0.639994 0.39998,-1.353326 0.4,-2.14 -2e-5,-0.866658 -0.20002,-1.573324 -0.6,-2.12 -0.38668,-0.559989 -0.90002,-1.026656 -1.54,-1.4 -0.64002,-0.373322 -1.37335,-0.686655 -2.2,-0.94 -0.81335,-0.266654 -1.65335,-0.53332 -2.52,-0.8 -0.85334,-0.279987 -1.69334,-0.599986 -2.52,-0.96 -0.81334,-0.359985 -1.54001,-0.826652 -2.18,-1.4 -0.64001,-0.573317 -1.16001,-1.28665 -1.56,-2.14 -0.38667,-0.866648 -0.58,-1.933314 -0.58,-3.2 0,-1.013311 0.19333,-1.9933105 0.58,-2.9400002 0.39999,-0.9466417 0.97333,-1.7866409 1.72,-2.52 0.74666,-0.7333061 1.66666,-1.3199721 2.76,-1.76 1.10666,-0.4399713 2.37332,-0.659971 3.8,-0.66 1.59999,2.9e-5 3.05998,0.253362 4.38,0.76 1.31998,0.5066944 2.47331,1.240027 3.46,2.2 l -0.94,1.84"
       style="font-variant:normal;font-stretch:normal;fill:#ffffff;font-family:Lato;-inkscape-font-specification:Lato"
       id="path3035" /><path
       d="m 220.99684,39.808189 0,-27.12 2.12,0 c 0.50666,2e-5 0.82666,0.246686 0.96,0.74 l 0.3,2.4 c 0.86666,-1.053315 1.85333,-1.899981 2.96,-2.54 1.11999,-0.63998 2.40666,-0.95998 3.86,-0.96 1.15999,2e-5 2.21332,0.226687 3.16,0.68 0.94665,0.440019 1.75332,1.100019 2.42,1.98 0.66665,0.866684 1.17998,1.946682 1.54,3.24 0.35998,1.293347 0.53998,2.780012 0.54,4.46 -2e-5,1.493342 -0.20002,2.886674 -0.6,4.18 -0.40002,1.280005 -0.97335,2.393337 -1.72,3.34 -0.74668,0.933335 -1.66668,1.673334 -2.76,2.22 -1.08001,0.533333 -2.30001,0.8 -3.66,0.8 -1.25334,0 -2.32667,-0.206667 -3.22,-0.62 -0.88,-0.413333 -1.66,-0.999999 -2.34,-1.76 l 0,8.96 -3.56,0 m 9.02,-24.6 c -1.16001,1.8e-5 -2.18001,0.266684 -3.06,0.8 -0.86667,0.53335 -1.66667,1.286682 -2.4,2.26 l 0,9.8 c 0.65333,0.880004 1.36666,1.500003 2.14,1.86 0.78666,0.360002 1.65999,0.540002 2.62,0.54 1.87999,2e-6 3.32666,-0.67333 4.34,-2.02 1.01332,-1.346661 1.51999,-3.266659 1.52,-5.76 -1e-5,-1.319989 -0.12001,-2.453321 -0.36,-3.4 -0.22668,-0.946652 -0.56001,-1.719985 -1,-2.32 -0.44001,-0.613317 -0.98001,-1.059983 -1.62,-1.34 -0.64001,-0.279983 -1.36668,-0.419982 -2.18,-0.42"
       style="font-variant:normal;font-stretch:normal;fill:#ffffff;font-family:Lato;-inkscape-font-specification:Lato"
       id="path3037" /><path
       d="m 251.30622,12.368189 c 1.47999,2e-5 2.81332,0.246687 4,0.74 1.19998,0.493352 2.21331,1.193352 3.04,2.1 0.83998,0.906683 1.47998,2.006682 1.92,3.3 0.45331,1.280013 0.67998,2.713345 0.68,4.3 -2e-5,1.600008 -0.22669,3.040007 -0.68,4.32 -0.44002,1.280004 -1.08002,2.373337 -1.92,3.28 -0.82669,0.906668 -1.84002,1.606667 -3.04,2.1 -1.18668,0.48 -2.52001,0.72 -4,0.72 -1.48001,0 -2.82001,-0.24 -4.02,-0.72 -1.18667,-0.493333 -2.20001,-1.193332 -3.04,-2.1 -0.84,-0.906663 -1.48667,-1.999996 -1.94,-3.28 -0.45334,-1.279993 -0.68,-2.719992 -0.68,-4.32 0,-1.586655 0.22666,-3.019987 0.68,-4.3 0.45333,-1.293318 1.1,-2.393317 1.94,-3.3 0.83999,-0.906648 1.85333,-1.606648 3.04,-2.1 1.19999,-0.493313 2.53999,-0.73998 4.02,-0.74 m 0,18.08 c 1.99999,2e-6 3.49332,-0.666664 4.48,-2 0.98665,-1.346661 1.47998,-3.219992 1.48,-5.62 -2e-5,-2.413321 -0.49335,-4.293319 -1.48,-5.64 -0.98668,-1.34665 -2.48001,-2.019982 -4.48,-2.02 -1.01335,1.8e-5 -1.89334,0.173351 -2.64,0.52 -0.74668,0.346683 -1.37334,0.846683 -1.88,1.5 -0.49334,0.653348 -0.86667,1.460014 -1.12,2.42 -0.24001,0.946679 -0.36001,2.020011 -0.36,3.22 -1e-5,1.200009 0.11999,2.273341 0.36,3.22 0.25333,0.946672 0.62666,1.746672 1.12,2.4 0.50666,0.640004 1.13332,1.133336 1.88,1.48 0.74666,0.346669 1.62665,0.520002 2.64,0.52"
       style="font-variant:normal;font-stretch:normal;fill:#ffffff;font-family:Lato;-inkscape-font-specification:Lato"
       id="path3039" /><path
       d="m 265.37184,32.948189 0,-20.26 2.12,0 c 0.50666,2e-5 0.82666,0.246686 0.96,0.74 l 0.28,2.2 c 0.88,-0.973315 1.86,-1.759981 2.94,-2.36 1.09333,-0.59998 2.35333,-0.89998 3.78,-0.9 1.10666,2e-5 2.07999,0.186687 2.92,0.56 0.85332,0.360019 1.55999,0.880019 2.12,1.56 0.57332,0.666684 1.00665,1.47335 1.3,2.42 0.29332,0.946682 0.43998,1.993347 0.44,3.14 l 0,12.9 -3.56,0 0,-12.9 c -10e-6,-1.533319 -0.35335,-2.719985 -1.06,-3.56 -0.69334,-0.853316 -1.76001,-1.279982 -3.2,-1.28 -1.05334,1.8e-5 -2.04001,0.253351 -2.96,0.76 -0.90667,0.506683 -1.74667,1.193349 -2.52,2.06 l 0,14.92 -3.56,0"
       style="font-variant:normal;font-stretch:normal;fill:#ffffff;font-family:Lato;-inkscape-font-specification:Lato"
       id="path3041" /><path
       d="m 299.23747,16.028189 c -0.16002,0.29335 -0.40668,0.440016 -0.74,0.44 -0.20002,1.6e-5 -0.42668,-0.07332 -0.68,-0.22 -0.25335,-0.14665 -0.56668,-0.30665 -0.94,-0.48 -0.36001,-0.18665 -0.79335,-0.353316 -1.3,-0.5 -0.50668,-0.159982 -1.10668,-0.239982 -1.8,-0.24 -0.60001,1.8e-5 -1.14001,0.08002 -1.62,0.24 -0.48001,0.146684 -0.89334,0.35335 -1.24,0.62 -0.33334,0.266683 -0.59334,0.580016 -0.78,0.94 -0.17334,0.346682 -0.26001,0.726682 -0.26,1.14 -1e-5,0.520014 0.14666,0.953347 0.44,1.3 0.30666,0.34668 0.70666,0.646679 1.2,0.9 0.49332,0.253346 1.05332,0.480012 1.68,0.68 0.62666,0.186678 1.26666,0.393345 1.92,0.62 0.66665,0.213344 1.31332,0.453344 1.94,0.72 0.62665,0.266677 1.18665,0.60001 1.68,1 0.49332,0.400009 0.88665,0.893342 1.18,1.48 0.30665,0.573341 0.45998,1.266673 0.46,2.08 -2e-5,0.933338 -0.16668,1.800004 -0.5,2.6 -0.33335,0.786669 -0.82668,1.473335 -1.48,2.06 -0.65335,0.573334 -1.45335,1.026667 -2.4,1.36 -0.94668,0.333333 -2.04001,0.499999 -3.28,0.5 -1.41334,-10e-7 -2.69334,-0.226667 -3.84,-0.68 -1.14667,-0.466666 -2.12,-1.059999 -2.92,-1.78 l 0.84,-1.36 c 0.10666,-0.17333 0.23333,-0.306663 0.38,-0.4 0.14666,-0.09333 0.34,-0.139996 0.58,-0.14 0.23999,4e-6 0.49333,0.09334 0.76,0.28 0.26666,0.18667 0.58666,0.393336 0.96,0.62 0.38666,0.226669 0.84666,0.433336 1.38,0.62 0.54666,0.186669 1.22666,0.280002 2.04,0.28 0.69332,2e-6 1.29999,-0.08666 1.82,-0.26 0.51999,-0.186664 0.95332,-0.433331 1.3,-0.74 0.34665,-0.306663 0.59999,-0.659996 0.76,-1.06 0.17332,-0.399996 0.25999,-0.826662 0.26,-1.28 -10e-6,-0.559994 -0.15335,-1.019994 -0.46,-1.38 -0.29335,-0.373326 -0.68668,-0.686659 -1.18,-0.94 -0.49335,-0.266659 -1.06001,-0.493325 -1.7,-0.68 -0.62668,-0.199991 -1.27334,-0.406658 -1.94,-0.62 -0.65334,-0.213324 -1.30001,-0.453324 -1.94,-0.72 -0.62667,-0.27999 -1.18667,-0.626656 -1.68,-1.04 -0.49334,-0.413322 -0.89334,-0.919988 -1.2,-1.52 -0.29334,-0.61332 -0.44,-1.35332 -0.44,-2.22 0,-0.773318 0.16,-1.513317 0.48,-2.22 0.32,-0.719983 0.78666,-1.346649 1.4,-1.88 0.61333,-0.546648 1.36666,-0.97998 2.26,-1.3 0.89332,-0.31998 1.91332,-0.47998 3.06,-0.48 1.33332,2e-5 2.52665,0.213353 3.58,0.64 1.06665,0.413353 1.98665,0.986685 2.76,1.72 l -0.8,1.3"
       style="font-variant:normal;font-stretch:normal;fill:#ffffff;font-family:Lato;-inkscape-font-specification:Lato"
       id="path3043" /><path
       d="m 313.18122,12.368189 c 1.47999,2e-5 2.81332,0.246687 4,0.74 1.19998,0.493352 2.21331,1.193352 3.04,2.1 0.83998,0.906683 1.47998,2.006682 1.92,3.3 0.45331,1.280013 0.67998,2.713345 0.68,4.3 -2e-5,1.600008 -0.22669,3.040007 -0.68,4.32 -0.44002,1.280004 -1.08002,2.373337 -1.92,3.28 -0.82669,0.906668 -1.84002,1.606667 -3.04,2.1 -1.18668,0.48 -2.52001,0.72 -4,0.72 -1.48001,0 -2.82001,-0.24 -4.02,-0.72 -1.18667,-0.493333 -2.20001,-1.193332 -3.04,-2.1 -0.84,-0.906663 -1.48667,-1.999996 -1.94,-3.28 -0.45334,-1.279993 -0.68,-2.719992 -0.68,-4.32 0,-1.586655 0.22666,-3.019987 0.68,-4.3 0.45333,-1.293318 1.1,-2.393317 1.94,-3.3 0.83999,-0.906648 1.85333,-1.606648 3.04,-2.1 1.19999,-0.493313 2.53999,-0.73998 4.02,-0.74 m 0,18.08 c 1.99999,2e-6 3.49332,-0.666664 4.48,-2 0.98665,-1.346661 1.47998,-3.219992 1.48,-5.62 -2e-5,-2.413321 -0.49335,-4.293319 -1.48,-5.64 -0.98668,-1.34665 -2.48001,-2.019982 -4.48,-2.02 -1.01335,1.8e-5 -1.89334,0.173351 -2.64,0.52 -0.74668,0.346683 -1.37334,0.846683 -1.88,1.5 -0.49334,0.653348 -0.86667,1.460014 -1.12,2.42 -0.24001,0.946679 -0.36001,2.020011 -0.36,3.22 -10e-6,1.200009 0.11999,2.273341 0.36,3.22 0.25333,0.946672 0.62666,1.746672 1.12,2.4 0.50666,0.640004 1.13332,1.133336 1.88,1.48 0.74666,0.346669 1.62665,0.520002 2.64,0.52"
       style="font-variant:normal;font-stretch:normal;fill:#ffffff;font-family:Lato;-inkscape-font-specification:Lato"
       id="path3045" /><path
       d="m 327.24684,32.948189 0,-20.26 2.04,0 c 0.38666,2e-5 0.65333,0.07335 0.8,0.22 0.14666,0.146686 0.24666,0.400019 0.3,0.76 l 0.24,3.16 c 0.69333,-1.413316 1.54666,-2.513315 2.56,-3.3 1.02666,-0.79998 2.22666,-1.19998 3.6,-1.2 0.55999,2e-5 1.06666,0.06669 1.52,0.2 0.45332,0.12002 0.87332,0.293353 1.26,0.52 l -0.46,2.66 c -0.0933,0.33335 -0.30001,0.500017 -0.62,0.5 -0.18668,1.7e-5 -0.47334,-0.05998 -0.86,-0.18 -0.38668,-0.133316 -0.92668,-0.199983 -1.62,-0.2 -1.24001,1.7e-5 -2.28001,0.360017 -3.12,1.08 -0.82667,0.720015 -1.52,1.766681 -2.08,3.14 l 0,12.9 -3.56,0"
       style="font-variant:normal;font-stretch:normal;fill:#ffffff;font-family:Lato;-inkscape-font-specification:Lato"
       id="path3047" /><path
       d="m 354.94059,16.028189 c -0.16001,0.29335 -0.40668,0.440016 -0.74,0.44 -0.20001,1.6e-5 -0.42668,-0.07332 -0.68,-0.22 -0.25334,-0.14665 -0.56668,-0.30665 -0.94,-0.48 -0.36001,-0.18665 -0.79334,-0.353316 -1.3,-0.5 -0.50667,-0.159982 -1.10667,-0.239982 -1.8,-0.24 -0.60001,1.8e-5 -1.14,0.08002 -1.62,0.24 -0.48,0.146684 -0.89334,0.35335 -1.24,0.62 -0.33334,0.266683 -0.59334,0.580016 -0.78,0.94 -0.17334,0.346682 -0.26,0.726682 -0.26,1.14 0,0.520014 0.14666,0.953347 0.44,1.3 0.30666,0.34668 0.70666,0.646679 1.2,0.9 0.49333,0.253346 1.05333,0.480012 1.68,0.68 0.62666,0.186678 1.26666,0.393345 1.92,0.62 0.66666,0.213344 1.31332,0.453344 1.94,0.72 0.62666,0.266677 1.18666,0.60001 1.68,1 0.49332,0.400009 0.88666,0.893342 1.18,1.48 0.30665,0.573341 0.45999,1.266673 0.46,2.08 -10e-6,0.933338 -0.16668,1.800004 -0.5,2.6 -0.33334,0.786669 -0.82668,1.473335 -1.48,2.06 -0.65334,0.573334 -1.45334,1.026667 -2.4,1.36 -0.94667,0.333333 -2.04001,0.499999 -3.28,0.5 -1.41334,-10e-7 -2.69334,-0.226667 -3.84,-0.68 -1.14667,-0.466666 -2.12,-1.059999 -2.92,-1.78 l 0.84,-1.36 c 0.10667,-0.17333 0.23333,-0.306663 0.38,-0.4 0.14667,-0.09333 0.34,-0.139996 0.58,-0.14 0.24,4e-6 0.49333,0.09334 0.76,0.28 0.26667,0.18667 0.58667,0.393336 0.96,0.62 0.38666,0.226669 0.84666,0.433336 1.38,0.62 0.54666,0.186669 1.22666,0.280002 2.04,0.28 0.69333,2e-6 1.29999,-0.08666 1.82,-0.26 0.51999,-0.186664 0.95333,-0.433331 1.3,-0.74 0.34666,-0.306663 0.59999,-0.659996 0.76,-1.06 0.17332,-0.399996 0.25999,-0.826662 0.26,-1.28 -10e-6,-0.559994 -0.15334,-1.019994 -0.46,-1.38 -0.29334,-0.373326 -0.68667,-0.686659 -1.18,-0.94 -0.49334,-0.266659 -1.06001,-0.493325 -1.7,-0.68 -0.62667,-0.199991 -1.27334,-0.406658 -1.94,-0.62 -0.65334,-0.213324 -1.3,-0.453324 -1.94,-0.72 -0.62667,-0.27999 -1.18667,-0.626656 -1.68,-1.04 -0.49333,-0.413322 -0.89333,-0.919988 -1.2,-1.52 -0.29333,-0.61332 -0.44,-1.35332 -0.44,-2.22 0,-0.773318 0.16,-1.513317 0.48,-2.22 0.32,-0.719983 0.78667,-1.346649 1.4,-1.88 0.61333,-0.546648 1.36666,-0.97998 2.26,-1.3 0.89333,-0.31998 1.91333,-0.47998 3.06,-0.48 1.33333,2e-5 2.52666,0.213353 3.58,0.64 1.06666,0.413353 1.98666,0.986685 2.76,1.72 l -0.8,1.3"
       style="font-variant:normal;font-stretch:normal;fill:#ffffff;font-family:Lato;-inkscape-font-specification:Lato"
       id="path3049" /></g><g
     id="g3192"
     transform="matrix(0.40495407,0,0,0.40495407,-205.47299,-8.5033275)"
     style="fill:#ffffff"><path
       id="path3773_3_"
       inkscape:export-xdpi="48.18"
       inkscape:export-ydpi="48.18"
       inkscape:export-filename="/home/rafael/workspace/logo-osi/3/png/logo396x412.png"
       inkscape:connector-curvature="0"
       d="m 549.275,70.313 c 6.666,-2.559 9.995,-10.038 7.437,-16.704 -2.56,-6.665 -10.038,-9.995 -16.703,-7.436 -6.666,2.559 -9.995,10.037 -7.437,16.703 1.313,3.42 4.016,6.123 7.437,7.436 L 531.3,93.004 C 512.102,85.635 502.512,64.099 509.881,44.9 c 7.368,-19.198 28.905,-28.788 48.103,-21.419 19.198,7.369 28.788,28.905 21.42,48.103 -3.781,9.853 -11.566,17.638 -21.42,21.419 l -8.709,-22.69 z"
       style="fill:#ffffff" /><path
       d="m 557.767,103.694 c 0.934,0 1.689,-0.835 1.689,-1.86 v -1.762 c 0,-1.025 -0.756,-1.86 -1.689,-1.86 h -26.299 c -0.934,0 -1.691,0.835 -1.691,1.86 v 1.762 c 0,1.025 0.758,1.86 1.691,1.86 h 26.299 z"
       id="path3195"
       inkscape:connector-curvature="0"
       style="fill:#ffffff" /><path
       d="m 557.767,111.712 c 0.934,0 1.689,-0.835 1.689,-1.863 v -1.761 c 0,-1.027 -0.756,-1.861 -1.689,-1.861 h -26.299 c -0.934,0 -1.691,0.834 -1.691,1.861 v 1.761 c 0,1.028 0.758,1.863 1.691,1.863 h 26.299 z"
       id="path3197"
       inkscape:connector-curvature="0"
       style="fill:#ffffff" /><path
       d="m 557.767,119.727 c 0.934,0 1.689,-0.834 1.689,-1.861 v -1.761 c 0,-1.028 -0.756,-1.863 -1.689,-1.863 h -26.299 c -0.934,0 -1.691,0.835 -1.691,1.863 v 1.761 c 0,1.027 0.758,1.861 1.691,1.861 h 26.299 z"
       id="path3199"
       inkscape:connector-curvature="0"
       style="fill:#ffffff" /><path
       d="m 553.282,122.53 c -1.588,3.165 -4.863,5.385 -8.645,5.385 -3.759,0 -7.088,-2.252 -8.688,-5.383 h 17.333 v -0.002 z"
       id="path3201"
       inkscape:connector-curvature="0"
       style="fill:#ffffff" /></g><g
     style="font-size:40px;font-style:normal;font-weight:normal;line-height:125%;letter-spacing:0px;word-spacing:0px;fill:#ffffff;fill-opacity:1;stroke:none;font-family:lato;-inkscape-font-specification:lato"
     id="text3235"><path
       d="m 61.202416,4.2881888 0,3.16 -13.76,0 0,10.0200002 11.76,0 0,3.16 -11.76,0 0,12.32 -3.9,0 0,-28.6600002 17.66,0"
       style="fill:#ffffff;fill-opacity:1"
       id="path3067" /><path
       d="m 64.466791,32.948189 0,-20.26 2.04,0 c 0.386661,2e-5 0.653328,0.07335 0.8,0.22 0.146661,0.146686 0.246661,0.400019 0.3,0.76 l 0.24,3.16 c 0.693326,-1.413316 1.546659,-2.513315 2.56,-3.3 1.026657,-0.79998 2.226656,-1.19998 3.6,-1.2 0.559987,2e-5 1.066653,0.06669 1.52,0.2 0.453319,0.12002 0.873319,0.293353 1.26,0.52 l -0.46,2.66 c -0.09335,0.33335 -0.300014,0.500017 -0.62,0.5 -0.186681,1.7e-5 -0.473347,-0.05998 -0.86,-0.18 -0.38668,-0.133316 -0.926679,-0.199983 -1.62,-0.2 -1.24001,1.7e-5 -2.280009,0.360017 -3.12,1.08 -0.826674,0.720015 -1.520007,1.766681 -2.08,3.14 l 0,12.9 -3.56,0"
       style="fill:#ffffff;fill-opacity:1"
       id="path3069" /><path
       d="m 88.580541,12.368189 c 1.213321,2e-5 2.33332,0.206687 3.36,0.62 1.026651,0.400019 1.913317,0.986685 2.66,1.76 0.746649,0.760017 1.326648,1.706683 1.74,2.84 0.426648,1.120014 0.639981,2.400013 0.64,3.84 -1.9e-5,0.560011 -0.06002,0.933344 -0.18,1.12 -0.120019,0.186677 -0.346685,0.28001 -0.68,0.28 l -13.48,0 c 0.02666,1.280009 0.199995,2.393341 0.52,3.34 0.319994,0.946672 0.759994,1.740005 1.32,2.38 0.559993,0.62667 1.226659,1.100003 2,1.42 0.773324,0.306669 1.63999,0.460002 2.6,0.46 0.893321,2e-6 1.659987,-0.1 2.3,-0.3 0.653319,-0.213331 1.213318,-0.439997 1.68,-0.68 0.466651,-0.239996 0.853317,-0.459996 1.16,-0.66 0.319983,-0.213329 0.593316,-0.319996 0.82,-0.32 0.293316,4e-6 0.519982,0.113337 0.68,0.34 l 1,1.3 c -0.440019,0.533335 -0.966685,1.000002 -1.58,1.4 -0.61335,0.386668 -1.273349,0.706667 -1.98,0.96 -0.693348,0.253333 -1.413347,0.44 -2.16,0.56 -0.746679,0.133333 -1.486678,0.2 -2.22,0.2 -1.40001,0 -2.693342,-0.233334 -3.88,-0.7 -1.173339,-0.479999 -2.193338,-1.173332 -3.06,-2.08 -0.853337,-0.919997 -1.520003,-2.053329 -2,-3.4 -0.480002,-1.34666 -0.720001,-2.893325 -0.72,-4.64 -10e-7,-1.413322 0.213332,-2.73332 0.64,-3.96 0.439998,-1.226651 1.066664,-2.28665 1.88,-3.18 0.813329,-0.906648 1.806661,-1.613314 2.98,-2.12 1.173325,-0.51998 2.493324,-0.77998 3.96,-0.78 m 0.08,2.62 c -1.720009,1.8e-5 -3.073341,0.500017 -4.06,1.5 -0.986673,0.986682 -1.600005,2.360014 -1.84,4.12 l 11.02,0 c -1.6e-5,-0.826654 -0.113349,-1.579986 -0.34,-2.26 -0.226682,-0.693318 -0.560015,-1.286651 -1,-1.78 -0.440014,-0.50665 -0.980014,-0.893316 -1.62,-1.16 -0.626679,-0.279982 -1.346678,-0.419982 -2.16,-0.42"
       style="fill:#ffffff;fill-opacity:1"
       id="path3071" /><path
       d="m 109.51804,12.368189 c 1.21332,2e-5 2.33332,0.206687 3.36,0.62 1.02665,0.400019 1.91332,0.986685 2.66,1.76 0.74665,0.760017 1.32665,1.706683 1.74,2.84 0.42665,1.120014 0.63998,2.400013 0.64,3.84 -2e-5,0.560011 -0.06,0.933344 -0.18,1.12 -0.12002,0.186677 -0.34668,0.28001 -0.68,0.28 l -13.48,0 c 0.0267,1.280009 0.2,2.393341 0.52,3.34 0.32,0.946672 0.75999,1.740005 1.32,2.38 0.55999,0.62667 1.22666,1.100003 2,1.42 0.77332,0.306669 1.63999,0.460002 2.6,0.46 0.89332,2e-6 1.65999,-0.1 2.3,-0.3 0.65332,-0.213331 1.21332,-0.439997 1.68,-0.68 0.46665,-0.239996 0.85332,-0.459996 1.16,-0.66 0.31998,-0.213329 0.59332,-0.319996 0.82,-0.32 0.29332,4e-6 0.51998,0.113337 0.68,0.34 l 1,1.3 c -0.44002,0.533335 -0.96668,1.000002 -1.58,1.4 -0.61335,0.386668 -1.27335,0.706667 -1.98,0.96 -0.69335,0.253333 -1.41335,0.44 -2.16,0.56 -0.74668,0.133333 -1.48668,0.2 -2.22,0.2 -1.40001,0 -2.69334,-0.233334 -3.88,-0.7 -1.17334,-0.479999 -2.19334,-1.173332 -3.06,-2.08 -0.85334,-0.919997 -1.52,-2.053329 -2,-3.4 -0.48,-1.34666 -0.72,-2.893325 -0.72,-4.64 0,-1.413322 0.21333,-2.73332 0.64,-3.96 0.44,-1.226651 1.06666,-2.28665 1.88,-3.18 0.81333,-0.906648 1.80666,-1.613314 2.98,-2.12 1.17333,-0.51998 2.49332,-0.77998 3.96,-0.78 m 0.08,2.62 c -1.72001,1.8e-5 -3.07334,0.500017 -4.06,1.5 -0.98667,0.986682 -1.6,2.360014 -1.84,4.12 l 11.02,0 c -2e-5,-0.826654 -0.11335,-1.579986 -0.34,-2.26 -0.22668,-0.693318 -0.56001,-1.286651 -1,-1.78 -0.44001,-0.50665 -0.98001,-0.893316 -1.62,-1.16 -0.62668,-0.279982 -1.34668,-0.419982 -2.16,-0.42"
       style="fill:#ffffff;fill-opacity:1"
       id="path3073" /><path
       d="m 136.69554,32.948189 c -0.50668,0 -0.82668,-0.246667 -0.96,-0.74 l -0.32,-2.46 c -0.86668,1.053335 -1.86001,1.900001 -2.98,2.54 -1.10668,0.626666 -2.38001,0.94 -3.82,0.94 -1.16001,0 -2.21334,-0.22 -3.16,-0.66 -0.94667,-0.453333 -1.75334,-1.113332 -2.42,-1.98 -0.66667,-0.866664 -1.18,-1.946663 -1.54,-3.24 -0.36,-1.293327 -0.54,-2.779992 -0.54,-4.46 0,-1.493322 0.2,-2.879987 0.6,-4.16 0.4,-1.293318 0.97333,-2.413317 1.72,-3.36 0.76,-0.946648 1.68,-1.686648 2.76,-2.22 1.07999,-0.546647 2.30666,-0.81998 3.68,-0.82 1.23999,2e-5 2.29999,0.213354 3.18,0.64 0.87999,0.413353 1.66665,1.000019 2.36,1.76 l 0,-11.2400002 3.56,0 0,29.4600002 -2.12,0 m -6.9,-2.6 c 1.15999,2e-6 2.17332,-0.266664 3.04,-0.8 0.87999,-0.53333 1.68665,-1.286662 2.42,-2.26 l 0,-9.8 c -0.65335,-0.879984 -1.37335,-1.493317 -2.16,-1.84 -0.77335,-0.359983 -1.63334,-0.539982 -2.58,-0.54 -1.89334,1.8e-5 -3.34667,0.67335 -4.36,2.02 -1.01334,1.346681 -1.52,3.266679 -1.52,5.76 0,1.320009 0.11333,2.453341 0.34,3.4 0.22666,0.933339 0.56,1.706671 1,2.32 0.43999,0.600004 0.97999,1.040003 1.62,1.32 0.63999,0.280003 1.37332,0.420002 2.2,0.42"
       style="fill:#ffffff;fill-opacity:1"
       id="path3075" /><path
       d="m 152.97929,11.218186 c 1.47999,2e-5 2.81332,0.246687 4,0.74 1.19998,0.493352 2.21332,1.193352 3.04,2.1 0.83998,0.906683 1.47998,2.006682 1.92,3.3 0.45331,1.280013 0.67998,2.713345 0.68,4.3 -2e-5,1.600008 -0.22669,3.040007 -0.68,4.32 -0.44002,1.280004 -1.08002,2.373337 -1.92,3.28 -0.82668,0.906668 -1.84002,1.606667 -3.04,2.1 -1.18668,0.48 -2.52001,0.72 -4,0.72 -1.48001,0 -2.82001,-0.24 -4.02,-0.72 -1.18667,-0.493333 -2.2,-1.193332 -3.04,-2.1 -0.84,-0.906663 -1.48667,-1.999996 -1.94,-3.28 -0.45333,-1.279993 -0.68,-2.719992 -0.68,-4.32 0,-1.586655 0.22667,-3.019987 0.68,-4.3 0.45333,-1.293318 1.1,-2.393317 1.94,-3.3 0.84,-0.906648 1.85333,-1.606648 3.04,-2.1 1.19999,-0.493313 2.53999,-0.73998 4.02,-0.74 m 0,18.08 c 1.99999,2e-6 3.49332,-0.666664 4.48,-2 0.98665,-1.346661 1.47998,-3.219992 1.48,-5.62 -2e-5,-2.413321 -0.49335,-4.293319 -1.48,-5.64 -0.98668,-1.34665 -2.48001,-2.019982 -4.48,-2.02 -1.01334,1.8e-5 -1.89334,0.173351 -2.64,0.52 -0.74667,0.346683 -1.37334,0.846683 -1.88,1.5 -0.49334,0.653348 -0.86667,1.460014 -1.12,2.42 -0.24,0.946679 -0.36,2.020011 -0.36,3.22 0,1.200009 0.12,2.273341 0.36,3.22 0.25333,0.946672 0.62666,1.746672 1.12,2.4 0.50666,0.640004 1.13333,1.133336 1.88,1.48 0.74666,0.346669 1.62666,0.520002 2.64,0.52"
       style="fill:#ffffff;fill-opacity:1"
       id="path3077"
       inkscape:connector-curvature="0" /><path
       d="m 167.04492,32.948189 0,-20.26 2.12,0 c 0.50666,2e-5 0.82666,0.246686 0.96,0.74 l 0.26,2.08 c 0.74666,-0.919982 1.57999,-1.673314 2.5,-2.26 0.93332,-0.586647 2.01332,-0.87998 3.24,-0.88 1.37332,2e-5 2.47998,0.38002 3.32,1.14 0.85331,0.760018 1.46665,1.786684 1.84,3.08 0.27998,-0.733316 0.64664,-1.366649 1.1,-1.9 0.46664,-0.533315 0.98664,-0.973314 1.56,-1.32 0.57331,-0.346647 1.17998,-0.59998 1.82,-0.76 0.65331,-0.15998 1.31331,-0.23998 1.98,-0.24 1.06664,2e-5 2.0133,0.173354 2.84,0.52 0.83997,0.333353 1.54663,0.826686 2.12,1.48 0.58663,0.653351 1.0333,1.460017 1.34,2.42 0.30663,0.946682 0.45997,2.033347 0.46,3.26 l 0,12.9 -3.56,0 0,-12.9 c -3e-5,-1.586652 -0.3467,-2.786651 -1.04,-3.6 -0.69336,-0.82665 -1.70003,-1.239982 -3.02,-1.24 -0.58669,1.8e-5 -1.14669,0.106684 -1.68,0.32 -0.52002,0.200017 -0.98002,0.500017 -1.38,0.9 -0.40002,0.400016 -0.72002,0.906682 -0.96,1.52 -0.22669,0.600014 -0.34002,1.300013 -0.34,2.1 l 0,12.9 -3.56,0 0,-12.9 c -2e-5,-1.626652 -0.32669,-2.839984 -0.98,-3.64 -0.65335,-0.799983 -1.60668,-1.199982 -2.86,-1.2 -0.88001,1.8e-5 -1.70001,0.240017 -2.46,0.72 -0.74668,0.466683 -1.43334,1.106682 -2.06,1.92 l 0,15.1 -3.56,0"
       style="fill:#ffffff;fill-opacity:1"
       id="path3079" /></g><path
     sodipodi:type="arc"
     style="fill:#ffffff;fill-opacity:1;stroke:none"
     id="path3775"
     sodipodi:cx="213.65753"
     sodipodi:cy="80.875404"
     sodipodi:rx="3.9989378"
     sodipodi:ry="3.9989378"
     d="m 217.65647,80.875404 a 3.9989378,3.9989378 0 1 1 -7.99788,0 3.9989378,3.9989378 0 1 1 7.99788,0 z"
     transform="matrix(0.76585786,0,0,1.0936568,-10.67201,-66.80175)" /><path
     transform="matrix(0.76585786,0,0,1.0936568,149.52992,-65.651747)"
     d="m 217.65647,80.875404 a 3.9989378,3.9989378 0 1 1 -7.99788,0 3.9989378,3.9989378 0 1 1 7.99788,0 z"
     sodipodi:ry="3.9989378"
     sodipodi:rx="3.9989378"
     sodipodi:cy="80.875404"
     sodipodi:cx="213.65753"
     id="path3849"
     style="fill:#ffffff;fill-opacity:1;stroke:none"
     sodipodi:type="arc" /></svg>